<svg width="122" height="113" viewBox="0 0 122 113" fill="none" xmlns="http://www.w3.org/2000/svg">
<path fill-rule="evenodd" clip-rule="evenodd" d="M75.6591 3.46553C78.4665 3.88302 84.0726 6.42091 84.6986 12.2468C85.803 22.5341 85.1146 32.5998 85.1146 32.5998C85.1146 32.5998 87.5276 32.2756 88.3502 34.5327C89.1719 36.7907 87.381 48.8507 85.4029 50.3499C83.4248 51.8493 82.6032 51.8663 82.6032 51.8663C82.6032 51.8663 81.4866 61.3488 78.9298 64.0902C77.8585 65.239 76.1708 75.9484 81.6539 81.8488C87.137 87.7502 101.715 93.4216 110.415 96.9886C119.114 100.556 122 113 122 113H0C0 113 2.88582 100.556 11.5857 96.9886C20.2855 93.4216 34.864 87.7502 40.3471 81.8488C45.8302 75.9484 44.1426 65.2388 43.0712 64.0902C40.5146 61.3488 39.3987 51.8663 39.3987 51.8663C39.3987 51.8663 38.577 51.8493 36.5981 50.3499C34.62 48.8506 32.8292 36.7906 33.6517 34.5327C34.4734 32.2756 36.8873 32.5998 36.8873 32.5998C36.8873 32.5998 37.2986 20.5831 37.2986 18.8926C37.2986 17.4932 34.8289 17.7561 34.9868 16.8684C37.3175 3.70761 50.3452 0.00963493 61.3034 0.000225948C66.0557 -0.00354367 73.8384 0.000225708 75.6604 3.46538L75.6591 3.46553Z" fill="#D3D3D3"/>
</svg>
